# xmcd
#
# Track frame offsets:
#	150
#	11531
#	25456
#	37901
#	49910
#	60143
#	72892
#	87393
#	99421
#	114437
#	125929
#	138665
#	148077
#	158390
#	171557
#	183340
#	196002
#	210135
#	221932
#	234437
#
# Disc length: 3325 seconds
#
# Revision: 0
# Processed by: cddbd v1.5.2PL0 Copyright (c) Steve Scherf et al.
# Submitted via: audiograbber 1.83.01
#
DISCID=170cfb14
DTITLE=Ray Charles - The Signature Collection (Disc3)
DYEAR=2007
DGENRE=Soul
TTITLE0=This Little Girl Of Mine
TTITLE1=Come Back, Baby
TTITLE2=Rockin´ Chair Blues
TTITLE3=Leave My Woman Alone
TTITLE4=Sittin´ On Top Of The World
TTITLE5=Greenbacks
TTITLE6=Losing Hand
TTITLE7=I Love You, I Love You (I Will Never Let You Go)
TTITLE8=I´m Wondering And Wondering
TTITLE9=Let´s Have A Ball
TTITLE10=The Snow Is Falling
TTITLE11=All To Myself
TTITLE12=Ain´t That Fine
TTITLE13=Milkcow Blues Boogie
TTITLE14=Roll With Me, Baby
TTITLE15=You´ll Never Miss The Water (Until The Well´s Gone Dry)
TTITLE16=Someday
TTITLE17=can´t You See Darling
TTITLE18=Jumpin´ In The Morning
TTITLE19=Drown In My Own Tears
EXTD=
EXTT0=
EXTT1=
EXTT2=
EXTT3=
EXTT4=
EXTT5=
EXTT6=
EXTT7=
EXTT8=
EXTT9=
EXTT10=
EXTT11=
EXTT12=
EXTT13=
EXTT14=
EXTT15=
EXTT16=
EXTT17=
EXTT18=
EXTT19=
PLAYORDER=
